<svg width="24" height="24" viewBox="0 0 24 24" fill="none" xmlns="http://www.w3.org/2000/svg">
<path d="M4.2 19.2C3.705 19.2 3.28125 19.0237 2.92875 18.671C2.57625 18.3183 2.4 17.8943 2.4 17.399V6.59299C2.4 6.09765 2.57625 5.67499 2.92875 5.32499C3.28125 4.97499 3.705 4.79999 4.2 4.79999H19.8C20.295 4.79999 20.7188 4.97632 21.0713 5.32899C21.4238 5.68165 21.6 6.10565 21.6 6.60099V17.407C21.6 17.9023 21.4238 18.325 21.0713 18.675C20.7188 19.025 20.295 19.2 19.8 19.2H4.2ZM12 13.2L4.2 8.72499V17.4H19.8V8.72499L12 13.2ZM12 11.075L19.8 6.59999H4.2L12 11.075ZM4.2 8.72499V6.59999V17.4V8.72499Z" fill="#242220"/>
</svg>
