<svg width="18" height="18" viewBox="0 0 18 18" fill="none" xmlns="http://www.w3.org/2000/svg">
<path d="M16.5 9H12L10.5 11.25H7.5L6 9H1.5M16.5 9V13.5C16.5 13.8978 16.342 14.2794 16.0607 14.5607C15.7794 14.842 15.3978 15 15 15H3C2.60218 15 2.22064 14.842 1.93934 14.5607C1.65804 14.2794 1.5 13.8978 1.5 13.5V9M16.5 9L13.9125 3.8325C13.7883 3.58259 13.5969 3.37228 13.3597 3.22521C13.1226 3.07814 12.8491 3.00015 12.57 3H5.43C5.15094 3.00015 4.87745 3.07814 4.64028 3.22521C4.40312 3.37228 4.21168 3.58259 4.0875 3.8325L1.5 9" stroke="#242220" stroke-linecap="round" stroke-linejoin="round"/>
</svg>
