<svg width="22" height="23" viewBox="0 0 22 23" fill="none" xmlns="http://www.w3.org/2000/svg">
<path d="M14.6667 10.5833C16.1883 10.5833 17.4075 9.35499 17.4075 7.83333C17.4075 6.31166 16.1883 5.08333 14.6667 5.08333C13.145 5.08333 11.9167 6.31166 11.9167 7.83333C11.9167 9.35499 13.145 10.5833 14.6667 10.5833ZM7.33332 10.5833C8.85499 10.5833 10.0742 9.35499 10.0742 7.83333C10.0742 6.31166 8.85499 5.08333 7.33332 5.08333C5.81166 5.08333 4.58332 6.31166 4.58332 7.83333C4.58332 9.35499 5.81166 10.5833 7.33332 10.5833ZM7.33332 12.4167C5.19749 12.4167 0.916656 13.4892 0.916656 15.625V17.9167H13.75V15.625C13.75 13.4892 9.46916 12.4167 7.33332 12.4167ZM14.6667 12.4167C14.4008 12.4167 14.0983 12.435 13.7775 12.4625C14.8408 13.2325 15.5833 14.2683 15.5833 15.625V17.9167H21.0833V15.625C21.0833 13.4892 16.8025 12.4167 14.6667 12.4167Z" fill="#C84031"/>
</svg>
