<svg width="14" height="110" viewBox="0 0 14 110" fill="none" xmlns="http://www.w3.org/2000/svg">
<path d="M1.7002 11.9678C1.7002 15.8666 2.6742 17.8627 4.05371 18.9307C5.47585 20.0314 7.50782 20.2998 10 20.2998H13C13.3865 20.2999 13.7002 20.6135 13.7002 21C13.7002 21.3865 13.3865 21.7001 13 21.7002H10C7.49247 21.7002 5.02412 21.4521 3.19629 20.0371C2.61379 19.5861 2.11343 19.0308 1.7002 18.3564V55.9678C1.7002 59.8666 2.6742 61.8627 4.05371 62.9307C5.47585 64.0314 7.50782 64.2998 10 64.2998H13C13.3865 64.2999 13.7002 64.6135 13.7002 65C13.7002 65.3865 13.3865 65.7001 13 65.7002H10C7.49247 65.7002 5.02412 65.4521 3.19629 64.0371C2.61379 63.5861 2.11343 63.0308 1.7002 62.3564V99.9678C1.7002 103.867 2.6742 105.863 4.05371 106.931C5.47585 108.032 7.50774 108.3 10 108.3H13C13.3866 108.3 13.7002 108.613 13.7002 109C13.7002 109.387 13.3866 109.7 13 109.7H10C7.49241 109.7 5.02414 109.452 3.19629 108.037C1.32597 106.589 0.29981 104.069 0.299805 99.9678V0H1.7002V11.9678Z" fill="#242220" fill-opacity="0.16"/>
</svg>
