<svg width="20" height="21" viewBox="0 0 20 21" fill="none" xmlns="http://www.w3.org/2000/svg">
<path d="M9.99998 14.6667C12.3012 14.6667 14.1666 12.8012 14.1666 10.5C14.1666 8.19881 12.3012 6.33333 9.99998 6.33333C7.69879 6.33333 5.83331 8.19881 5.83331 10.5C5.83331 12.8012 7.69879 14.6667 9.99998 14.6667Z" fill="#FF991C"/>
<path d="M9.99998 1.33333V2.99999M9.99998 18V19.6667M3.51665 4.01666L4.69998 5.19999M15.3 15.8L16.4833 16.9833M0.833313 10.5H2.49998M17.5 10.5H19.1666M3.51665 16.9833L4.69998 15.8M15.3 5.19999L16.4833 4.01666M14.1666 10.5C14.1666 12.8012 12.3012 14.6667 9.99998 14.6667C7.69879 14.6667 5.83331 12.8012 5.83331 10.5C5.83331 8.19881 7.69879 6.33333 9.99998 6.33333C12.3012 6.33333 14.1666 8.19881 14.1666 10.5Z" stroke="#FF991C" stroke-opacity="0.7" stroke-width="2" stroke-linecap="round" stroke-linejoin="round"/>
</svg>
